<svg width="389" height="88" viewBox="0 0 389 88" fill="none" xmlns="http://www.w3.org/2000/svg">
<path d="M346.648 28.8672C346.372 28.8672 346.148 28.6433 346.148 28.3672V19.5938C346.148 19.3176 346.372 19.0938 346.648 19.0938H388.469C388.745 19.0938 388.969 19.3176 388.969 19.5938V28.3672C388.969 28.6433 388.745 28.8672 388.469 28.8672H373.5V69.5C373.5 69.7761 373.276 70 373 70H362.117C361.841 70 361.617 69.7761 361.617 69.5V28.8672H346.648Z" fill="#3D3D3D"/>
<path d="M302.352 70C302.075 70 301.852 69.7761 301.852 69.5V19.5937C301.852 19.3176 302.075 19.0938 302.352 19.0938H322.664C334.125 19.0938 341.156 25.5625 341.156 35.9688C341.156 42.9648 337.957 47.9922 332.367 50.5234L342.581 69.2607C342.763 69.5939 342.522 70 342.142 70H330.136C329.951 70 329.782 69.8983 329.695 69.7356L320.484 52.4922H313.805V69.5C313.805 69.7761 313.581 70 313.305 70H302.352ZM313.805 42.9297H320.133C325.758 42.9297 328.781 40.75 328.781 35.9688C328.781 31.1875 325.758 28.7969 320.133 28.7969H313.805V42.9297Z" fill="#3D3D3D"/>
<path d="M259.461 70C259.185 70 258.961 69.7761 258.961 69.5V19.5937C258.961 19.3176 259.185 19.0938 259.461 19.0938H293.688C293.964 19.0938 294.188 19.3176 294.188 19.5938V28.3672C294.188 28.6433 293.964 28.8672 293.688 28.8672H270.914V39.625H291.859C292.136 39.625 292.359 39.8489 292.359 40.125V48.8984C292.359 49.1746 292.136 49.3984 291.859 49.3984H270.914V60.2266H293.758C294.034 60.2266 294.258 60.4504 294.258 60.7266V69.5C294.258 69.7761 294.034 70 293.758 70H259.461Z" fill="#3D3D3D"/>
<path d="M214.109 70C213.833 70 213.609 69.7761 213.609 69.5V19.5937C213.609 19.3176 213.833 19.0938 214.109 19.0938H234.422C245.883 19.0938 252.914 26.2656 252.914 36.6016C252.914 47.1484 245.742 54.0391 234.07 54.0391H225.562V69.5C225.562 69.7761 225.339 70 225.062 70H214.109ZM225.562 44.5469H231.891C237.516 44.5469 240.539 41.3828 240.539 36.6016C240.539 31.8203 237.516 28.7969 231.891 28.7969H225.562V44.5469Z" fill="#3D3D3D"/>
<path d="M174.158 19.0938C174.336 19.0938 174.5 19.1884 174.59 19.3423L183.937 35.4062H184.359L193.777 19.3409C193.866 19.1878 194.031 19.0938 194.208 19.0938H206.464C206.854 19.0938 207.094 19.5193 206.892 19.8526L191.953 44.5469L207.366 69.2352C207.574 69.5682 207.335 70 206.942 70H194.348C194.171 70 194.007 69.9064 193.917 69.754L184.359 53.5469H183.937L174.379 69.754C174.289 69.9064 174.126 70 173.949 70H161.423C161.031 70 160.791 69.5691 160.998 69.2361L176.343 44.5469L161.336 19.8534C161.134 19.5202 161.374 19.0938 161.764 19.0938H174.158Z" fill="#3D3D3D"/>
<path d="M142.734 19.5938C142.734 19.3176 142.958 19.0938 143.234 19.0938H154.258C154.534 19.0938 154.758 19.3176 154.758 19.5938V51.9297C154.758 63.3203 146.109 70.7031 133.312 70.7031C120.445 70.7031 111.867 63.3203 111.867 51.9297V19.5937C111.867 19.3176 112.091 19.0938 112.367 19.0938H123.32C123.596 19.0938 123.82 19.3176 123.82 19.5937V50.9453C123.82 56.3594 127.688 60.2266 133.312 60.2266C138.938 60.2266 142.734 56.3594 142.734 50.9453V19.5938Z" fill="#3D3D3D"/>
<rect width="88" height="88" rx="10" fill="url(#paint0_linear_14931_99032)"/>
<path d="M37.0678 20C38.325 20.0002 39.2701 21.1466 39.0307 22.3809L33.9594 48.5254L33.9584 48.5352C33.4943 50.856 33.5749 52.4333 33.9506 53.4355C34.3331 54.4554 34.9605 55.1353 35.8705 55.5684C36.9902 56.0319 38.4196 56.2959 40.2074 56.2959C42.8318 56.2958 44.9051 55.6727 46.5297 54.5283C48.0404 53.451 49.2589 51.3941 49.9301 47.9541V47.9521L55.0922 21.6152C55.2762 20.677 56.0981 20.0002 57.0541 20H67.8129C69.0735 20 70.0198 21.1521 69.7748 22.3887L64.3071 49.9893C63.4231 54.6417 61.7998 58.5776 59.3783 61.7256L59.3705 61.7354C56.9648 64.8147 53.9456 67.1088 50.3363 68.6006C46.7605 70.0785 42.7507 70.7998 38.3354 70.7998C35.3764 70.7998 32.5601 70.4005 29.8959 69.5918L29.8783 69.5869L29.8617 69.5811C27.194 68.7079 24.8786 67.3612 22.9477 65.5293L22.9321 65.5137C20.9548 63.5871 19.5904 61.1518 18.809 58.2705L18.8051 58.2568L18.8022 58.2441C18.0544 55.3026 18.1058 51.8541 18.8471 47.9619L18.8481 47.9521L24.0102 21.6152C24.1941 20.6769 25.0168 20 25.9731 20H37.0678ZM37.3119 69.1113C37.4777 69.1169 37.6441 69.1222 37.811 69.125L38.3354 69.1289C37.9919 69.1289 37.6507 69.1227 37.3119 69.1113ZM38.3354 69.1289C38.5921 69.1289 38.8475 69.1262 39.101 69.1211C38.8474 69.1262 38.5922 69.1289 38.3354 69.1289ZM39.3432 69.1133C39.5142 69.1087 39.6844 69.1045 39.8539 69.0977C39.6844 69.1045 39.5142 69.1087 39.3432 69.1133ZM36.2739 69.0576C36.5734 69.0782 36.8748 69.0949 37.1781 69.1064C36.8748 69.0949 36.5734 69.0782 36.2739 69.0576ZM40.1713 69.082C40.3138 69.075 40.4557 69.0673 40.5971 69.0586C40.4557 69.0673 40.3138 69.075 40.1713 69.082ZM35.7817 69.0195C35.9274 69.0321 36.0735 69.0433 36.2201 69.0537C36.0735 69.0433 35.9274 69.0321 35.7817 69.0195ZM40.9164 69.0371C41.0573 69.0271 41.1976 69.0165 41.3373 69.0049C41.1976 69.0165 41.0573 69.0271 40.9164 69.0371ZM41.6381 68.9785C41.7819 68.9652 41.9252 68.9516 42.0678 68.9365C41.9252 68.9516 41.7819 68.9652 41.6381 68.9785ZM34.7719 68.9141C34.9102 68.9311 35.0488 68.947 35.1879 68.9619C35.0488 68.9469 34.9102 68.9311 34.7719 68.9141ZM34.3227 68.8555C34.4399 68.8718 34.5574 68.8874 34.6752 68.9023C34.5574 68.8874 34.4399 68.8719 34.3227 68.8555ZM42.3803 68.9014C42.5113 68.8862 42.6418 68.8702 42.7719 68.8535C42.6418 68.8702 42.5113 68.8862 42.3803 68.9014ZM33.8588 68.7861C33.9576 68.8017 34.0565 68.8166 34.1557 68.8311C34.0565 68.8166 33.9575 68.8017 33.8588 68.7861ZM43.1156 68.8076C43.2388 68.7904 43.3615 68.7725 43.4838 68.7539C43.3615 68.7725 43.2388 68.7904 43.1156 68.8076ZM33.3393 68.6992C33.4354 68.7163 33.5318 68.7329 33.6283 68.749C33.5318 68.7329 33.4354 68.7163 33.3393 68.6992ZM43.7924 68.7051C43.9228 68.6839 44.0527 68.6625 44.1821 68.6396C44.0527 68.6625 43.9228 68.6839 43.7924 68.7051ZM32.8305 68.6035C32.9581 68.6288 33.086 68.6533 33.2143 68.6768C33.086 68.6533 32.9581 68.6288 32.8305 68.6035ZM32.3178 68.4971C32.4563 68.5274 32.5953 68.5568 32.7348 68.585C32.5953 68.5568 32.4563 68.5275 32.3178 68.4971ZM44.5082 68.5801C44.6187 68.5593 44.7286 68.5376 44.8383 68.5156C44.7286 68.5376 44.6187 68.5593 44.5082 68.5801ZM31.8862 68.3984C32.0114 68.4282 32.1371 68.4565 32.2631 68.4844C32.1371 68.4565 32.0114 68.4282 31.8862 68.3984ZM45.2182 68.4365C45.3132 68.4162 45.4079 68.3953 45.5024 68.374C45.4079 68.3953 45.3132 68.4162 45.2182 68.4365ZM30.3813 67.9922V67.9932C30.8407 68.1326 31.3057 68.2583 31.7758 68.3721C31.3057 68.2583 30.8408 68.1317 30.3813 67.9922ZM45.8637 68.291C45.9831 68.2624 46.1017 68.2322 46.2201 68.2021C46.1017 68.2322 45.9831 68.2624 45.8637 68.291ZM46.5043 68.1299C46.6737 68.085 46.8418 68.0372 47.0092 67.9893C46.8418 68.0372 46.6737 68.085 46.5043 68.1299ZM47.1313 67.9551C47.2931 67.9079 47.4537 67.8586 47.6137 67.8086C47.4537 67.8586 47.2931 67.9079 47.1313 67.9551ZM48.4242 67.542C48.2205 67.6133 48.0149 67.6815 47.808 67.748C48.2341 67.6111 48.6539 67.465 49.0668 67.3076L48.4242 67.542ZM27.8871 66.9678C28.124 67.087 28.3646 67.2021 28.6098 67.3115L28.1879 67.1162C28.0868 67.0678 27.9868 67.0179 27.8871 66.9678ZM56.2778 62.708H56.2787H56.2778ZM34.9662 56.9844C35.0408 57.0231 35.1165 57.0616 35.1938 57.0977C35.2218 57.1094 35.2505 57.1194 35.2787 57.1309C35.2508 57.1195 35.2225 57.1093 35.1947 57.0977C35.1173 57.0615 35.041 57.0232 34.9662 56.9844ZM32.2768 53.6973C32.2403 53.5779 32.2081 53.455 32.1781 53.3291C32.2082 53.455 32.2403 53.5779 32.2768 53.6973ZM62.6655 49.6777C62.3725 51.2195 61.9949 52.6674 61.5365 54.0225C61.6638 53.6462 61.7873 53.2637 61.9018 52.873C62.0508 52.3647 62.1894 51.8442 62.3168 51.3115C62.4442 50.7791 62.5606 50.2345 62.6664 49.6777L68.2143 21.6709H68.2133L62.6655 49.6777ZM31.974 51C31.9784 50.8624 31.9855 50.7224 31.9946 50.5801C31.9855 50.7224 31.9784 50.8624 31.974 51ZM32.0541 49.8994C32.0591 49.8543 32.0653 49.8092 32.0707 49.7637C32.0653 49.8092 32.0591 49.8543 32.0541 49.8994ZM32.1596 49.1025C32.1556 49.1283 32.1527 49.1541 32.1489 49.1797C32.1541 49.145 32.159 49.1101 32.1645 49.0752L32.1596 49.1025ZM35.2778 68.9717C35.4335 68.9879 35.5897 69.0029 35.7465 69.0166C35.5897 69.0029 35.4335 68.9879 35.2778 68.9717ZM34.809 56.8984C34.8594 56.9266 34.9097 56.9555 34.9614 56.9824C34.9097 56.9555 34.8594 56.9266 34.809 56.8984ZM32.599 54.5225L32.6059 54.5381C32.6338 54.5963 32.6634 54.6533 32.6928 54.71C32.6608 54.6483 32.6292 54.586 32.599 54.5225ZM32.3862 54.0225L32.2983 53.7666C32.2978 53.7652 32.2967 53.7641 32.2963 53.7627C32.3245 53.8511 32.3544 53.9377 32.3862 54.0225ZM32.017 50.2812C32.0085 50.382 32.0008 50.4816 31.9946 50.5801C32.0008 50.4816 32.0085 50.382 32.017 50.2812Z" fill="white"/>
<path d="M26.5343 15.6055C26.9067 15.7298 26.9068 16.2569 26.5343 16.381L21.9244 17.9169L20.3823 22.5421C20.2581 22.9146 19.7316 22.915 19.6073 22.5427L18.0663 17.9186L13.4507 16.3805C13.0782 16.2562 13.0782 15.7291 13.4507 15.6049L18.0714 14.0639L19.6067 9.4591C19.7309 9.08649 20.258 9.08652 20.3823 9.4591L21.9181 14.0656L26.5343 15.6055Z" fill="white"/>
<defs>
<linearGradient id="paint0_linear_14931_99032" x1="-13.4191" y1="41.612" x2="97.3967" y2="41.612" gradientUnits="userSpaceOnUse">
<stop stop-color="#556AF9"/>
<stop offset="1" stop-color="#7B61FF"/>
</linearGradient>
</defs>
</svg>
